<svg width="11" height="11" viewBox="0 0 11 11" fill="none" xmlns="http://www.w3.org/2000/svg">
<path d="M2.44444 4.76666V2.44444H1.22222V3.05555C1.22222 3.44259 1.33426 3.79153 1.55833 4.10239C1.78241 4.41324 2.07778 4.63466 2.44444 4.76666ZM8.55555 4.76666C8.92222 4.63426 9.21759 4.41263 9.44167 4.10177C9.66574 3.79092 9.77778 3.44218 9.77778 3.05555V2.44444H8.55555V4.76666ZM4.88889 9.77777V7.88333C4.38981 7.77129 3.94431 7.56005 3.55239 7.24961C3.16046 6.93916 2.87263 6.54948 2.68889 6.08055C1.925 5.98888 1.28598 5.65542 0.771833 5.08016C0.257685 4.5049 0.000407407 3.83003 0 3.05555V2.44444C0 2.10833 0.119778 1.8207 0.359333 1.58155C0.598889 1.34241 0.886518 1.22263 1.22222 1.22222H2.44444C2.44444 0.88611 2.56422 0.598481 2.80378 0.359333C3.04333 0.120185 3.33096 0.000407407 3.66667 0H7.33333C7.66944 0 7.95728 0.119778 8.19683 0.359333C8.43639 0.598889 8.55596 0.886518 8.55555 1.22222H9.77778C10.1139 1.22222 10.4017 1.342 10.6413 1.58155C10.8808 1.82111 11.0004 2.10874 11 2.44444V3.05555C11 3.82963 10.7427 4.5045 10.2282 5.08016C9.71361 5.65583 9.07459 5.98929 8.31111 6.08055C8.12778 6.54907 7.84015 6.93875 7.44822 7.24961C7.0563 7.56046 6.61059 7.7717 6.11111 7.88333V9.77777H7.94444C8.11759 9.77777 8.26283 9.83644 8.38017 9.95377C8.4975 10.0711 8.55596 10.2161 8.55555 10.3889C8.55515 10.5616 8.49648 10.7069 8.37955 10.8246C8.26263 10.9423 8.11759 11.0008 7.94444 11H3.05556C2.88241 11 2.73737 10.9413 2.62044 10.824C2.50352 10.7067 2.44485 10.5616 2.44444 10.3889C2.44404 10.2161 2.5027 10.0711 2.62044 9.95377C2.73818 9.83644 2.88322 9.77777 3.05556 9.77777H4.88889Z" fill="#4E4E4E"/>
</svg>
