<svg width="11" height="11" viewBox="0 0 11 11" fill="none" xmlns="http://www.w3.org/2000/svg">
<path d="M7.33331 10.9999H7.39638C7.68802 10.9997 7.96762 10.8836 8.17371 10.6773L10.678 8.17365C10.8841 7.96744 10.9999 7.68785 11 7.39632V7.33325H7.33331V10.9999Z" fill="#4E4E4E"/>
<path fill-rule="evenodd" clip-rule="evenodd" d="M0 1.1C0 0.808262 0.115893 0.528473 0.322183 0.322183C0.528473 0.115893 0.808262 0 1.1 0L9.9 0C10.1917 0 10.4715 0.115893 10.6778 0.322183C10.8841 0.528473 11 0.808262 11 1.1V6.6H6.96667C6.86942 6.6 6.77616 6.63863 6.70739 6.70739C6.63863 6.77616 6.6 6.86942 6.6 6.96667V11H1.1C0.808262 11 0.528473 10.8841 0.322183 10.6778C0.115893 10.4715 0 10.1917 0 9.9L0 1.1ZM8.8 2.93333H2.2V2.2H8.8V2.93333Z" fill="#4E4E4E"/>
</svg>
