<svg width="10" height="11" viewBox="0 0 10 11" fill="none" xmlns="http://www.w3.org/2000/svg">
<path d="M0 9.74286V4.08571C0 3.88667 0.0443749 3.69809 0.133125 3.52C0.221875 3.3419 0.344167 3.19524 0.5 3.08L4.25 0.251429C4.46875 0.0838096 4.71875 0 5 0C5.28125 0 5.53125 0.0838096 5.75 0.251429L9.5 3.08C9.65625 3.19524 9.77875 3.3419 9.8675 3.52C9.95625 3.69809 10.0004 3.88667 10 4.08571V9.74286C10 10.0886 9.8775 10.3846 9.6325 10.631C9.3875 10.8774 9.09333 11.0004 8.75 11H6.875C6.69792 11 6.54958 10.9397 6.43 10.819C6.31042 10.6983 6.25042 10.5491 6.25 10.3714V7.22857C6.25 7.05047 6.19 6.90129 6.07 6.78103C5.95 6.66076 5.80167 6.60042 5.625 6.6H4.375C4.19792 6.6 4.04958 6.66034 3.93 6.78103C3.81042 6.90171 3.75042 7.05089 3.75 7.22857V10.3714C3.75 10.5495 3.69 10.6989 3.57 10.8196C3.45 10.9403 3.30167 11.0004 3.125 11H1.25C0.90625 11 0.612083 10.877 0.3675 10.631C0.122917 10.385 0.000416667 10.089 0 9.74286Z" fill="#4E4E4E"/>
</svg>
