<svg width="11" height="11" viewBox="0 0 11 11" fill="none" xmlns="http://www.w3.org/2000/svg">
<path d="M0.55 11C0.394167 11 0.263633 10.9413 0.1584 10.824C0.0531667 10.7067 0.000366667 10.5616 0 10.3889V4.27778C0 4.10463 0.0528 3.95959 0.1584 3.84267C0.264 3.72574 0.394533 3.66707 0.55 3.66667H2.475C2.63083 3.66667 2.76155 3.72533 2.86715 3.84267C2.97275 3.96 3.02537 4.10504 3.025 4.27778V10.3889C3.025 10.562 2.9722 10.7073 2.8666 10.8246C2.761 10.9419 2.63047 11.0004 2.475 11H0.55ZM4.5375 11C4.38167 11 4.25113 10.9413 4.1459 10.824C4.04067 10.7067 3.98787 10.5616 3.9875 10.3889V0.611111C3.9875 0.437963 4.0403 0.292926 4.1459 0.176C4.2515 0.0590741 4.38203 0.000407407 4.5375 0H6.4625C6.61833 0 6.74905 0.0586667 6.85465 0.176C6.96025 0.293333 7.01287 0.43837 7.0125 0.611111V10.3889C7.0125 10.562 6.9597 10.7073 6.8541 10.8246C6.7485 10.9419 6.61797 11.0004 6.4625 11H4.5375ZM8.525 11C8.36917 11 8.23863 10.9413 8.1334 10.824C8.02817 10.7067 7.97537 10.5616 7.975 10.3889V5.5C7.975 5.32685 8.0278 5.18181 8.1334 5.06489C8.239 4.94796 8.36953 4.8893 8.525 4.88889H10.45C10.6058 4.88889 10.7365 4.94755 10.8421 5.06489C10.9477 5.18222 11.0004 5.32726 11 5.5V10.3889C11 10.562 10.9472 10.7073 10.8416 10.8246C10.736 10.9419 10.6055 11.0004 10.45 11H8.525Z" fill="#4E4E4E"/>
</svg>
